# xmcd CD database file
#
# Track frame offsets:
#	182
#	12348
#	26527
#	39222
#	53548
#	66047
#	80146
#	93186
#	107978
#	121065
#	134799
#	147155
#	160233
#	172487
#	187580
#	201958
#	216076
#	228714
#	242117
#	258281
#	268398
#	281067
#
# Disc length: 3892 seconds
#
# Revision: 0
# Processed by: cddbd v1.5.1PL0 Copyright (c) Steve Scherf et al.
# Submitted via: CDex 1.51
#
DISCID=450f3216
DTITLE=Cootie Williams  - And His Orch. 1946-1949
DYEAR=1946
DGENRE=Jazz
TTITLE0=Rhapsody in Bass
TTITLE1=Ain't Got No Blues Today
TTITLE2=Bring 'Em Down Front
TTITLE3=I Can't Get Started
TTITLE4=Inflation Blues
TTITLE5=I Want To Be Loved
TTITLE6=Sound Track
TTITLE7=Ooh La-La
TTITLE8=Save The Bones For Henry Jones
TTITLE9=If It's True
TTITLE10=I Should 'O Been Thinkin' Instead Of Drinkin'
TTITLE11=YouTalk A Little Trash
TTITLE12=Typhoon
TTITLE13=I Love You, Yes I Do
TTITLE14=Smooth Sailing
TTITLE15='Gator Tail - Part 1
TTITLE16='Gator Trail - Part 2
TTITLE17=Let 'Em Roll
TTITLE18=Slidin' And Glidin
TTITLE19='Mercenary Papa
TTITLE20=Doin' The Gator Tail
TTITLE21=You Gotta Pay Those Dues
EXTD=YEAR: 1946
EXTT0=
EXTT1=
EXTT2=
EXTT3=
EXTT4=
EXTT5=
EXTT6=
EXTT7=
EXTT8=
EXTT9=
EXTT10=
EXTT11=
EXTT12=
EXTT13=
EXTT14=
EXTT15=
EXTT16=
EXTT17=
EXTT18=
EXTT19=
EXTT20=
EXTT21=
PLAYORDER=
